<?xml version="1.0" standalone="no"?>
<!DOCTYPE svg PUBLIC "-//W3C//DTD SVG 20010904//EN"
 "http://www.w3.org/TR/2001/REC-SVG-20010904/DTD/svg10.dtd">
<svg version="1.0" xmlns="http://www.w3.org/2000/svg"
 width="512.000000pt" height="512.000000pt" viewBox="0 0 512.000000 512.000000"
 preserveAspectRatio="xMidYMid meet">

<g transform="translate(0.000000,512.000000) scale(0.100000,-0.100000)"
fill="#000000" stroke="none">
<path d="M0 2560 l0 -2560 2560 0 2560 0 0 2560 0 2560 -2560 0 -2560 0 0
-2560z m2220 1840 c41 -12 135 -50 208 -85 l133 -65 90 45 c201 101 344 142
463 132 39 -4 143 -24 231 -46 182 -45 303 -63 390 -59 l59 3 217 -392 216
-392 -203 -106 -204 -106 88 -167 c48 -92 175 -335 282 -540 l194 -372 81 0
c98 0 125 -14 125 -65 0 -44 -29 -65 -92 -65 l-47 0 -27 -62 c-127 -289 -276
-498 -490 -690 l-97 -88 -64 56 -63 56 -79 -73 c-185 -167 -273 -217 -551
-314 -201 -69 -340 -135 -443 -209 l-77 -55 -98 66 c-120 82 -187 113 -422
198 -302 109 -384 155 -548 310 l-82 77 -64 -55 -63 -56 -99 88 c-214 190
-383 433 -498 714 -14 36 -17 37 -64 37 -60 0 -94 23 -95 63 0 53 26 67 122
67 l86 1 281 539 281 539 -203 106 -204 107 40 71 c22 40 119 217 217 393
l177 322 76 -5 c89 -6 212 13 390 62 69 18 136 36 150 39 49 9 206 -4 280 -24z"/>
<path d="M1855 4274 c-125 -38 -316 -74 -391 -74 l-69 0 -125 -227 c-69 -124
-144 -261 -168 -304 l-42 -78 195 -101 c107 -56 197 -105 199 -109 3 -4 -124
-255 -281 -557 -157 -302 -288 -555 -290 -561 -4 -9 8 -13 39 -13 74 0 114
-64 68 -110 -17 -17 -33 -20 -100 -20 -52 0 -80 -4 -80 -11 0 -26 136 -271
198 -358 61 -87 255 -301 271 -301 4 0 36 24 71 54 l65 55 115 -113 c125 -123
205 -181 261 -191 49 -9 143 10 209 42 70 34 183 147 234 236 l39 67 286 0
287 0 21 -42 c80 -166 234 -283 396 -303 86 -11 137 19 303 175 l137 129 63
-55 c73 -64 72 -64 150 18 141 147 254 306 341 483 l54 110 -85 3 c-78 3 -87
5 -106 29 -25 32 -25 44 0 76 16 20 31 27 69 29 l48 3 -292 560 c-160 308
-289 563 -286 566 3 4 89 50 191 104 102 53 189 100 194 105 5 5 -65 140 -158
308 l-166 299 -102 6 c-75 4 -152 18 -281 51 -191 49 -276 57 -330 31 -83 -40
-218 -306 -267 -527 l-13 -58 -168 0 -168 0 -11 43 c-63 256 -183 495 -270
539 -51 26 -156 22 -255 -8z m1223 -617 c35 -19 71 -82 72 -124 0 -21 -5 -23
-55 -23 -50 0 -56 2 -65 25 l-10 25 -422 -2 -423 -3 -3 -332 -2 -333 -55 0
-55 0 0 346 c0 330 1 348 20 379 11 18 28 37 38 42 18 8 497 20 767 18 133 0
166 -4 193 -18z m-392 -149 c-11 -59 -34 -241 -41 -320 l-7 -78 -79 0 c-90 0
-84 -7 -92 108 l-5 62 79 0 79 0 0 80 0 80 -89 0 -88 0 -10 50 -10 50 135 0
134 0 -6 -32z m670 -67 c51 -31 64 -73 64 -210 l0 -121 -60 0 -60 0 0 120 0
120 -172 -2 -173 -3 0 -695 0 -695 173 -3 172 -2 0 80 0 80 60 0 60 0 0 -80
c0 -91 -15 -137 -55 -168 -26 -21 -38 -22 -232 -22 -227 0 -249 5 -280 63 -17
30 -18 82 -18 747 0 681 1 716 19 746 36 60 50 63 271 64 178 0 203 -2 231
-19z m-1346 -81 l0 -59 -62 -3 -63 -3 -3 -82 -3 -83 -59 0 -60 0 0 79 c0 87
10 123 43 160 33 35 75 50 145 51 l62 0 0 -60z m590 0 l0 -60 -190 0 -190 0 0
60 0 60 190 0 190 0 0 -60z m-590 -330 l0 -60 -158 0 c-178 0 -188 -3 -224
-73 -17 -32 -22 -60 -22 -117 -1 -90 23 -147 72 -170 29 -14 32 -18 32 -67 0
-47 -2 -53 -20 -53 -55 0 -130 62 -171 140 -21 39 -24 59 -24 150 0 128 23
189 92 250 57 50 93 58 276 59 l147 1 0 -60z m780 0 l0 -60 -285 0 -285 0 0
60 0 60 285 0 285 0 0 -60z m320 0 l0 -60 -50 0 -50 0 0 60 0 60 50 0 50 0 0
-60z m-480 -245 l0 -165 -73 0 -73 0 4 35 c3 21 10 35 18 35 11 0 14 18 14 80
0 64 -3 80 -15 80 -11 0 -15 12 -15 50 l0 50 70 0 70 0 0 -165z m-750 85 l0
-50 305 0 305 0 0 -55 0 -55 -305 0 -305 0 0 -430 0 -430 -60 0 -60 0 0 535 0
535 60 0 60 0 0 -50z m292 -662 l3 -463 430 0 430 0 3 23 c3 20 9 22 64 22
l60 0 -6 -37 c-8 -44 -30 -78 -70 -107 -27 -20 -39 -21 -474 -21 -492 0 -495
0 -532 60 -19 31 -20 49 -20 509 l0 476 55 0 55 0 2 -462z m-162 332 l0 -60
-40 0 -40 0 0 60 0 60 40 0 40 0 0 -60z m780 0 l0 -60 -280 0 -280 0 0 60 0
60 280 0 280 0 0 -60z m357 39 c87 -42 126 -125 127 -269 1 -197 -76 -319
-206 -328 l-58 -4 0 56 0 56 35 0 c47 0 79 32 99 101 18 60 21 157 6 210 -16
56 -43 79 -95 79 l-45 0 0 60 0 60 47 0 c27 0 65 -9 90 -21z m-493 -261 c9
-77 20 -154 23 -170 l6 -28 -125 0 -125 0 13 78 c7 43 16 116 19 163 4 46 9
87 12 92 2 4 39 7 82 7 l77 0 18 -142z m-944 -283 l0 -55 -35 0 -35 0 0 55 0
55 35 0 35 0 0 -55z m290 0 l0 -55 -35 0 -35 0 0 55 0 55 35 0 35 0 0 -55z
m790 0 l0 -55 -285 0 -285 0 0 55 0 55 285 0 285 0 0 -55z m-51 -157 c13 -46
26 -91 28 -100 5 -17 -10 -18 -210 -18 l-216 0 9 28 c5 15 18 60 30 100 l21
72 157 0 157 0 24 -82z"/>
</g>
</svg>
